# xmcd
#
# Track frame offsets: 
#        150
#        39059
#        65432
#        98297
#        133441
#        172625
#        205249
#        244459
#
# Disc length: 3776 seconds
#
# Revision: 0
# Processed by: cddbd v1.5.2PL0 Copyright (c) Steve Scherf et al.
# Submitted via: ExactAudioCopy v0.99pb3
#
DISCID=620ebe08
DTITLE=Timedrained - Dilemma
DYEAR=2007
DGENRE=Progressive Trance
TTITLE0=Bob Jackson
TTITLE1=In Sleep
TTITLE2=Las Vegas
TTITLE3=Songs
TTITLE4=Unloved
TTITLE5=Dream Factory
TTITLE6=Namaarie
TTITLE7=Rogue
EXTD=Label: Iono Music\nCatalog: IONO 09\nRelease: 2007-11-09\nhttp://
EXTD=www.discogs.com/release/1132730
EXTT0=
EXTT1=
EXTT2=
EXTT3=
EXTT4=
EXTT5=
EXTT6=
EXTT7=
PLAYORDER=
